<svg width="14" height="10" viewBox="0 0 14 10" fill="currentColor" xmlns="http://www.w3.org/2000/svg">
<path d="M11.7252 0.588784L5.32828 6.45283L2.52132 3.64587C2.40986 3.53046 2.27652 3.43841 2.1291 3.37508C1.98168 3.31175 1.82312 3.27842 1.66268 3.27702C1.50224 3.27563 1.34313 3.3062 1.19463 3.36696C1.04613 3.42772 0.911214 3.51744 0.79776 3.63089C0.684306 3.74434 0.594584 3.87926 0.533828 4.02776C0.473072 4.17626 0.442499 4.33537 0.443893 4.49581C0.445287 4.65625 0.478621 4.81481 0.541948 4.96223C0.605276 5.10965 0.69733 5.24299 0.812738 5.35445L4.43774 8.97945C4.65794 9.19968 4.95466 9.32639 5.26602 9.33315C5.57738 9.3399 5.87932 9.22618 6.10886 9.0157L13.3589 2.36987C13.595 2.15323 13.7355 1.85164 13.7493 1.53145C13.7631 1.21125 13.6492 0.89868 13.4326 0.662494C13.2159 0.426307 12.9143 0.285853 12.5941 0.27203C12.274 0.258207 11.9614 0.372147 11.7252 0.588784Z" fill="#109E4C"/>
</svg>
